<svg width="512" height="512" version="1.1" xmlns="http://www.w3.org/2000/svg" desc="Created with imagetracer.js version 1.2.6" ><path fill="rgb(0,0,0)" stroke="rgb(0,0,0)" stroke-width="1" opacity="0" d="M 0 0 L 512 0 L 512 394 L 418 341 L 418 493.5 L 419.5 495 L 511.5 495 L 512 495.5 L 512 512 L 0.5 512 L 0 511.5 L 0 495 L 92.5 495 L 94 493.5 L 94 341.5 L 92.5 341 L 0 394 L 0 0 Z M 246 17 L 244 19 L 244 43 L 209 43 L 209 67 L 244 67 L 244 104 L 238 108 L 46 267 L 47 270 L 71 297 L 256 144 L 442 297 L 465 270 L 466 267 L 275 108 L 268 104 L 268 67 L 303 67 L 303 43 L 268 43 L 268 19 L 267 17 L 246 17 Z M 255 168 L 110 289 L 110 494 L 206 494 L 206 401 Q 209 385 217 376 Q 224 366 237 361 L 246 358 L 254 358 L 255 357 Q 277 358 289 369 Q 297 376 302 387 L 306 401 L 306 494 L 402 494 L 402 289 L 263 172 L 258 168 L 255 168 Z " /><path fill="rgb(0,0,0)" stroke="rgb(0,0,0)" stroke-width="1" opacity="0.7725490196078432" d="M 245.5 17 L 266.5 17 L 268 18.5 L 268 43 L 302.5 43 L 302.5 44 L 267 44 L 267 18 L 245 18 L 245 44 L 209.5 44 L 209.5 43 L 244 43 L 244 18.5 L 245.5 17 Z " /><path fill="rgb(0,0,0)" stroke="rgb(0,0,0)" stroke-width="1" opacity="0.7725490196078432" d="M 209.5 66 L 245 66 L 245 102.5 L 244 102.5 L 244 67 L 209.5 67 L 209.5 66 Z " /><path fill="rgb(0,0,0)" stroke="rgb(0,0,0)" stroke-width="1" opacity="0.7725490196078432" d="M 267 66 L 303 66.5 L 268 67 L 267.5 103 L 267 66 Z " /><path fill="rgb(0,0,0)" stroke="rgb(0,0,0)" stroke-width="1" opacity="0.7725490196078432" d="M 242.5 104 L 240.5 107 L 242.5 104 Z " /><path fill="rgb(0,0,0)" stroke="rgb(0,0,0)" stroke-width="1" opacity="0.7725490196078432" d="M 269.5 104 L 271.5 107 L 269.5 104 Z " /><path fill="rgb(0,0,0)" stroke="rgb(0,0,0)" stroke-width="1" opacity="0.7725490196078432" d="M 237.5 108 L 234.5 112 L 237.5 108 Z " /><path fill="rgb(0,0,0)" stroke="rgb(0,0,0)" stroke-width="1" opacity="0.7725490196078432" d="M 274.5 108 L 277.5 112 L 274.5 108 Z " /><path fill="rgb(0,0,0)" stroke="rgb(0,0,0)" stroke-width="1" opacity="0.7725490196078432" d="M 231.5 113 L 229.5 116 L 231.5 113 Z " /><path fill="rgb(0,0,0)" stroke="rgb(0,0,0)" stroke-width="1" opacity="0.7725490196078432" d="M 280.5 113 L 282.5 116 L 280.5 113 Z " /><path fill="rgb(0,0,0)" stroke="rgb(0,0,0)" stroke-width="1" opacity="0.7725490196078432" d="M 225.5 118 L 223.5 121 L 225.5 118 Z " /><path fill="rgb(0,0,0)" stroke="rgb(0,0,0)" stroke-width="1" opacity="0.7725490196078432" d="M 286.5 118 L 288.5 121 L 286.5 118 Z " /><path fill="rgb(0,0,0)" stroke="rgb(0,0,0)" stroke-width="1" opacity="0.7725490196078432" d="M 220.5 122 L 217.5 126 L 220.5 122 Z " /><path fill="rgb(0,0,0)" stroke="rgb(0,0,0)" stroke-width="1" opacity="0.7725490196078432" d="M 291.5 122 L 294.5 126 L 291.5 122 Z " /><path fill="rgb(0,0,0)" stroke="rgb(0,0,0)" stroke-width="1" opacity="0.7725490196078432" d="M 214.5 127 L 212.5 130 L 214.5 127 Z " /><path fill="rgb(0,0,0)" stroke="rgb(0,0,0)" stroke-width="1" opacity="0.7725490196078432" d="M 297.5 127 L 299.5 130 L 297.5 127 Z " /><path fill="rgb(0,0,0)" stroke="rgb(0,0,0)" stroke-width="1" opacity="0.7725490196078432" d="M 208.5 132 L 206.5 135 L 208.5 132 Z " /><path fill="rgb(0,0,0)" stroke="rgb(0,0,0)" stroke-width="1" opacity="0.7725490196078432" d="M 303.5 132 L 305.5 135 L 303.5 132 Z " /><path fill="rgb(0,0,0)" stroke="rgb(0,0,0)" stroke-width="1" opacity="0.7725490196078432" d="M 203.5 136 L 200.5 140 L 203.5 136 Z " /><path fill="rgb(0,0,0)" stroke="rgb(0,0,0)" stroke-width="1" opacity="0.7725490196078432" d="M 308.5 136 L 311.5 140 L 308.5 136 Z " /><path fill="rgb(0,0,0)" stroke="rgb(0,0,0)" stroke-width="1" opacity="0.7725490196078432" d="M 197.5 141 L 194.5 145 L 197.5 141 Z " /><path fill="rgb(0,0,0)" stroke="rgb(0,0,0)" stroke-width="1" opacity="0.7725490196078432" d="M 314.5 141 L 317.5 145 L 314.5 141 Z " /><path fill="rgb(0,0,0)" stroke="rgb(0,0,0)" stroke-width="1" opacity="0.7725490196078432" d="M 253.5 145 L 251.5 148 L 253.5 145 Z " /><path fill="rgb(0,0,0)" stroke="rgb(0,0,0)" stroke-width="1" opacity="0.7725490196078432" d="M 258.5 145 L 260.5 148 L 258.5 145 Z " /><path fill="rgb(0,0,0)" stroke="rgb(0,0,0)" stroke-width="1" opacity="0.7725490196078432" d="M 191.5 146 L 189.5 149 L 191.5 146 Z " /><path fill="rgb(0,0,0)" stroke="rgb(0,0,0)" stroke-width="1" opacity="0.7725490196078432" d="M 320.5 146 L 322.5 149 L 320.5 146 Z " /><path fill="rgb(0,0,0)" stroke="rgb(0,0,0)" stroke-width="1" opacity="0.7725490196078432" d="M 247.5 150 L 245.5 153 L 247.5 150 Z " /><path fill="rgb(0,0,0)" stroke="rgb(0,0,0)" stroke-width="1" opacity="0.7725490196078432" d="M 264.5 150 L 266.5 153 L 264.5 150 Z " /><path fill="rgb(0,0,0)" stroke="rgb(0,0,0)" stroke-width="1" opacity="0.7725490196078432" d="M 185.5 151 L 183.5 154 L 185.5 151 Z " /><path fill="rgb(0,0,0)" stroke="rgb(0,0,0)" stroke-width="1" opacity="0.7725490196078432" d="M 326.5 151 L 328.5 154 L 326.5 151 Z " /><path fill="rgb(0,0,0)" stroke="rgb(0,0,0)" stroke-width="1" opacity="0.7725490196078432" d="M 242.5 154 L 239.5 158 L 242.5 154 Z " /><path fill="rgb(0,0,0)" stroke="rgb(0,0,0)" stroke-width="1" opacity="0.7725490196078432" d="M 269.5 154 L 272.5 158 L 269.5 154 Z " /><path fill="rgb(0,0,0)" stroke="rgb(0,0,0)" stroke-width="1" opacity="0.7725490196078432" d="M 180.5 155 L 177.5 159 L 180.5 155 Z " /><path fill="rgb(0,0,0)" stroke="rgb(0,0,0)" stroke-width="1" opacity="0.7725490196078432" d="M 331.5 155 L 334.5 159 L 331.5 155 Z " /><path fill="rgb(0,0,0)" stroke="rgb(0,0,0)" stroke-width="1" opacity="0.7725490196078432" d="M 236.5 159 L 234.5 162 L 236.5 159 Z " /><path fill="rgb(0,0,0)" stroke="rgb(0,0,0)" stroke-width="1" opacity="0.7725490196078432" d="M 275.5 159 L 277.5 162 L 275.5 159 Z " /><path fill="rgb(0,0,0)" stroke="rgb(0,0,0)" stroke-width="1" opacity="0.7725490196078432" d="M 174.5 160 L 172.5 163 L 174.5 160 Z " /><path fill="rgb(0,0,0)" stroke="rgb(0,0,0)" stroke-width="1" opacity="0.7725490196078432" d="M 337.5 160 L 339.5 163 L 337.5 160 Z " /><path fill="rgb(0,0,0)" stroke="rgb(0,0,0)" stroke-width="1" opacity="0.7725490196078432" d="M 230.5 164 L 228.5 167 L 230.5 164 Z " /><path fill="rgb(0,0,0)" stroke="rgb(0,0,0)" stroke-width="1" opacity="0.7725490196078432" d="M 281.5 164 L 283.5 167 L 281.5 164 Z " /><path fill="rgb(0,0,0)" stroke="rgb(0,0,0)" stroke-width="1" opacity="0.7725490196078432" d="M 168.5 165 L 166.5 168 L 168.5 165 Z " /><path fill="rgb(0,0,0)" stroke="rgb(0,0,0)" stroke-width="1" opacity="0.7725490196078432" d="M 343.5 165 L 345.5 168 L 343.5 165 Z " /><path fill="rgb(0,0,0)" stroke="rgb(0,0,0)" stroke-width="1" opacity="0.7725490196078432" d="M 225.5 168 L 222.5 172 L 225.5 168 Z " /><path fill="rgb(0,0,0)" stroke="rgb(0,0,0)" stroke-width="1" opacity="0.7725490196078432" d="M 254.5 168 L 252.5 171 L 254.5 168 Z " /><path fill="rgb(0,0,0)" stroke="rgb(0,0,0)" stroke-width="1" opacity="0.7725490196078432" d="M 257.5 168 L 259.5 171 L 257.5 168 Z " /><path fill="rgb(0,0,0)" stroke="rgb(0,0,0)" stroke-width="1" opacity="0.7725490196078432" d="M 286.5 168 L 289.5 172 L 286.5 168 Z " /><path fill="rgb(0,0,0)" stroke="rgb(0,0,0)" stroke-width="1" opacity="0.7725490196078432" d="M 163.5 169 L 160.5 173 L 163.5 169 Z " /><path fill="rgb(0,0,0)" stroke="rgb(0,0,0)" stroke-width="1" opacity="0.7725490196078432" d="M 348.5 169 L 351.5 173 L 348.5 169 Z " /><path fill="rgb(0,0,0)" stroke="rgb(0,0,0)" stroke-width="1" opacity="0.7725490196078432" d="M 249.5 172 L 246.5 176 L 249.5 172 Z " /><path fill="rgb(0,0,0)" stroke="rgb(0,0,0)" stroke-width="1" opacity="0.7725490196078432" d="M 262.5 172 L 265.5 176 L 262.5 172 Z " /><path fill="rgb(0,0,0)" stroke="rgb(0,0,0)" stroke-width="1" opacity="0.7725490196078432" d="M 219.5 173 L 217.5 176 L 219.5 173 Z " /><path fill="rgb(0,0,0)" stroke="rgb(0,0,0)" stroke-width="1" opacity="0.7725490196078432" d="M 292.5 173 L 294.5 176 L 292.5 173 Z " /><path fill="rgb(0,0,0)" stroke="rgb(0,0,0)" stroke-width="1" opacity="0.7725490196078432" d="M 157.5 174 L 155.5 177 L 157.5 174 Z " /><path fill="rgb(0,0,0)" stroke="rgb(0,0,0)" stroke-width="1" opacity="0.7725490196078432" d="M 354.5 174 L 356.5 177 L 354.5 174 Z " /><path fill="rgb(0,0,0)" stroke="rgb(0,0,0)" stroke-width="1" opacity="0.7725490196078432" d="M 243.5 177 L 240.5 181 L 243.5 177 Z " /><path fill="rgb(0,0,0)" stroke="rgb(0,0,0)" stroke-width="1" opacity="0.7725490196078432" d="M 268.5 177 L 271.5 181 L 268.5 177 Z " /><path fill="rgb(0,0,0)" stroke="rgb(0,0,0)" stroke-width="1" opacity="0.7725490196078432" d="M 213.5 178 L 211.5 181 L 213.5 178 Z " /><path fill="rgb(0,0,0)" stroke="rgb(0,0,0)" stroke-width="1" opacity="0.7725490196078432" d="M 298.5 178 L 300.5 181 L 298.5 178 Z " /><path fill="rgb(0,0,0)" stroke="rgb(0,0,0)" stroke-width="1" opacity="0.7725490196078432" d="M 151.5 179 L 149.5 182 L 151.5 179 Z " /><path fill="rgb(0,0,0)" stroke="rgb(0,0,0)" stroke-width="1" opacity="0.7725490196078432" d="M 360.5 179 L 362.5 182 L 360.5 179 Z " /><path fill="rgb(0,0,0)" stroke="rgb(0,0,0)" stroke-width="1" opacity="0.7725490196078432" d="M 208.5 182 L 205.5 186 L 208.5 182 Z " /><path fill="rgb(0,0,0)" stroke="rgb(0,0,0)" stroke-width="1" opacity="0.7725490196078432" d="M 237.5 182 L 234.5 186 L 237.5 182 Z " /><path fill="rgb(0,0,0)" stroke="rgb(0,0,0)" stroke-width="1" opacity="0.7725490196078432" d="M 274.5 182 L 277.5 186 L 274.5 182 Z " /><path fill="rgb(0,0,0)" stroke="rgb(0,0,0)" stroke-width="1" opacity="0.7725490196078432" d="M 303.5 182 L 306.5 186 L 303.5 182 Z " /><path fill="rgb(0,0,0)" stroke="rgb(0,0,0)" stroke-width="1" opacity="0.7725490196078432" d="M 146.5 183 L 143.5 187 L 146.5 183 Z " /><path fill="rgb(0,0,0)" stroke="rgb(0,0,0)" stroke-width="1" opacity="0.7725490196078432" d="M 365.5 183 L 368.5 187 L 365.5 183 Z " /><path fill="rgb(0,0,0)" stroke="rgb(0,0,0)" stroke-width="1" opacity="0.7725490196078432" d="M 202.5 187 L 200.5 190 L 202.5 187 Z " /><path fill="rgb(0,0,0)" stroke="rgb(0,0,0)" stroke-width="1" opacity="0.7725490196078432" d="M 231.5 187 L 228.5 191 L 231.5 187 Z " /><path fill="rgb(0,0,0)" stroke="rgb(0,0,0)" stroke-width="1" opacity="0.7725490196078432" d="M 280.5 187 L 283.5 191 L 280.5 187 Z " /><path fill="rgb(0,0,0)" stroke="rgb(0,0,0)" stroke-width="1" opacity="0.7725490196078432" d="M 309.5 187 L 311.5 190 L 309.5 187 Z " /><path fill="rgb(0,0,0)" stroke="rgb(0,0,0)" stroke-width="1" opacity="0.7725490196078432" d="M 140.5 188 L 138.5 191 L 140.5 188 Z " /><path fill="rgb(0,0,0)" stroke="rgb(0,0,0)" stroke-width="1" opacity="0.7725490196078432" d="M 371.5 188 L 373.5 191 L 371.5 188 Z " /><path fill="rgb(0,0,0)" stroke="rgb(0,0,0)" stroke-width="1" opacity="0.7725490196078432" d="M 196.5 192 L 194.5 195 L 196.5 192 Z " /><path fill="rgb(0,0,0)" stroke="rgb(0,0,0)" stroke-width="1" opacity="0.7725490196078432" d="M 225.5 192 L 223.5 195 L 225.5 192 Z " /><path fill="rgb(0,0,0)" stroke="rgb(0,0,0)" stroke-width="1" opacity="0.7725490196078432" d="M 286.5 192 L 288.5 195 L 286.5 192 Z " /><path fill="rgb(0,0,0)" stroke="rgb(0,0,0)" stroke-width="1" opacity="0.7725490196078432" d="M 315.5 192 L 317.5 195 L 315.5 192 Z " /><path fill="rgb(0,0,0)" stroke="rgb(0,0,0)" stroke-width="1" opacity="0.7725490196078432" d="M 134.5 193 L 132.5 196 L 134.5 193 Z " /><path fill="rgb(0,0,0)" stroke="rgb(0,0,0)" stroke-width="1" opacity="0.7725490196078432" d="M 377.5 193 L 379.5 196 L 377.5 193 Z " /><path fill="rgb(0,0,0)" stroke="rgb(0,0,0)" stroke-width="1" opacity="0.7725490196078432" d="M 191.5 196 L 188.5 200 L 191.5 196 Z " /><path fill="rgb(0,0,0)" stroke="rgb(0,0,0)" stroke-width="1" opacity="0.7725490196078432" d="M 320.5 196 L 323.5 200 L 320.5 196 Z " /><path fill="rgb(0,0,0)" stroke="rgb(0,0,0)" stroke-width="1" opacity="0.7725490196078432" d="M 129.5 197 L 126.5 201 L 129.5 197 Z " /><path fill="rgb(0,0,0)" stroke="rgb(0,0,0)" stroke-width="1" opacity="0.7725490196078432" d="M 219.5 197 L 217.5 200 L 219.5 197 Z " /><path fill="rgb(0,0,0)" stroke="rgb(0,0,0)" stroke-width="1" opacity="0.7725490196078432" d="M 292.5 197 L 294.5 200 L 292.5 197 Z " /><path fill="rgb(0,0,0)" stroke="rgb(0,0,0)" stroke-width="1" opacity="0.7725490196078432" d="M 382.5 197 L 385.5 201 L 382.5 197 Z " /><path fill="rgb(0,0,0)" stroke="rgb(0,0,0)" stroke-width="1" opacity="0.7725490196078432" d="M 185.5 201 L 183.5 204 L 185.5 201 Z " /><path fill="rgb(0,0,0)" stroke="rgb(0,0,0)" stroke-width="1" opacity="0.7725490196078432" d="M 326.5 201 L 328.5 204 L 326.5 201 Z " /><path fill="rgb(0,0,0)" stroke="rgb(0,0,0)" stroke-width="1" opacity="0.7725490196078432" d="M 123.5 202 L 121.5 205 L 123.5 202 Z " /><path fill="rgb(0,0,0)" stroke="rgb(0,0,0)" stroke-width="1" opacity="0.7725490196078432" d="M 213.5 202 L 211.5 205 L 213.5 202 Z " /><path fill="rgb(0,0,0)" stroke="rgb(0,0,0)" stroke-width="1" opacity="0.7725490196078432" d="M 298.5 202 L 300.5 205 L 298.5 202 Z " /><path fill="rgb(0,0,0)" stroke="rgb(0,0,0)" stroke-width="1" opacity="0.7725490196078432" d="M 388.5 202 L 390.5 205 L 388.5 202 Z " /><path fill="rgb(0,0,0)" stroke="rgb(0,0,0)" stroke-width="1" opacity="0.7725490196078432" d="M 179.5 206 L 177.5 209 L 179.5 206 Z " /><path fill="rgb(0,0,0)" stroke="rgb(0,0,0)" stroke-width="1" opacity="0.7725490196078432" d="M 332.5 206 L 334.5 209 L 332.5 206 Z " /><path fill="rgb(0,0,0)" stroke="rgb(0,0,0)" stroke-width="1" opacity="0.7725490196078432" d="M 117.5 207 L 115.5 210 L 117.5 207 Z " /><path fill="rgb(0,0,0)" stroke="rgb(0,0,0)" stroke-width="1" opacity="0.7725490196078432" d="M 207.5 207 L 205.5 210 L 207.5 207 Z " /><path fill="rgb(0,0,0)" stroke="rgb(0,0,0)" stroke-width="1" opacity="0.7725490196078432" d="M 304.5 207 L 306.5 210 L 304.5 207 Z " /><path fill="rgb(0,0,0)" stroke="rgb(0,0,0)" stroke-width="1" opacity="0.7725490196078432" d="M 394.5 207 L 396.5 210 L 394.5 207 Z " /><path fill="rgb(0,0,0)" stroke="rgb(0,0,0)" stroke-width="1" opacity="0.7725490196078432" d="M 174.5 210 L 171.5 214 L 174.5 210 Z " /><path fill="rgb(0,0,0)" stroke="rgb(0,0,0)" stroke-width="1" opacity="0.7725490196078432" d="M 337.5 210 L 340.5 214 L 337.5 210 Z " /><path fill="rgb(0,0,0)" stroke="rgb(0,0,0)" stroke-width="1" opacity="0.7725490196078432" d="M 112.5 211 L 109.5 215 L 112.5 211 Z " /><path fill="rgb(0,0,0)" stroke="rgb(0,0,0)" stroke-width="1" opacity="0.7725490196078432" d="M 202.5 211 L 199.5 215 L 202.5 211 Z " /><path fill="rgb(0,0,0)" stroke="rgb(0,0,0)" stroke-width="1" opacity="0.7725490196078432" d="M 309.5 211 L 312.5 215 L 309.5 211 Z " /><path fill="rgb(0,0,0)" stroke="rgb(0,0,0)" stroke-width="1" opacity="0.7725490196078432" d="M 399.5 211 L 402.5 215 L 399.5 211 Z " /><path fill="rgb(0,0,0)" stroke="rgb(0,0,0)" stroke-width="1" opacity="0.7725490196078432" d="M 168.5 215 L 165.5 219 L 168.5 215 Z " /><path fill="rgb(0,0,0)" stroke="rgb(0,0,0)" stroke-width="1" opacity="0.7725490196078432" d="M 343.5 215 L 346.5 219 L 343.5 215 Z " /><path fill="rgb(0,0,0)" stroke="rgb(0,0,0)" stroke-width="1" opacity="0.7725490196078432" d="M 106.5 216 L 103.5 220 L 106.5 216 Z " /><path fill="rgb(0,0,0)" stroke="rgb(0,0,0)" stroke-width="1" opacity="0.7725490196078432" d="M 196.5 216 L 193.5 220 L 196.5 216 Z " /><path fill="rgb(0,0,0)" stroke="rgb(0,0,0)" stroke-width="1" opacity="0.7725490196078432" d="M 315.5 216 L 318.5 220 L 315.5 216 Z " /><path fill="rgb(0,0,0)" stroke="rgb(0,0,0)" stroke-width="1" opacity="0.7725490196078432" d="M 405.5 216 L 408.5 220 L 405.5 216 Z " /><path fill="rgb(0,0,0)" stroke="rgb(0,0,0)" stroke-width="1" opacity="0.7725490196078432" d="M 162.5 220 L 160.5 223 L 162.5 220 Z " /><path fill="rgb(0,0,0)" stroke="rgb(0,0,0)" stroke-width="1" opacity="0.7725490196078432" d="M 349.5 220 L 351.5 223 L 349.5 220 Z " /><path fill="rgb(0,0,0)" stroke="rgb(0,0,0)" stroke-width="1" opacity="0.7725490196078432" d="M 100.5 221 L 98.5 224 L 100.5 221 Z " /><path fill="rgb(0,0,0)" stroke="rgb(0,0,0)" stroke-width="1" opacity="0.7725490196078432" d="M 190.5 221 L 187.5 225 L 190.5 221 Z " /><path fill="rgb(0,0,0)" stroke="rgb(0,0,0)" stroke-width="1" opacity="0.7725490196078432" d="M 321.5 221 L 324.5 225 L 321.5 221 Z " /><path fill="rgb(0,0,0)" stroke="rgb(0,0,0)" stroke-width="1" opacity="0.7725490196078432" d="M 411.5 221 L 413.5 224 L 411.5 221 Z " /><path fill="rgb(0,0,0)" stroke="rgb(0,0,0)" stroke-width="1" opacity="0.7725490196078432" d="M 156.5 225 L 154.5 228 L 156.5 225 Z " /><path fill="rgb(0,0,0)" stroke="rgb(0,0,0)" stroke-width="1" opacity="0.7725490196078432" d="M 355.5 225 L 357.5 228 L 355.5 225 Z " /><path fill="rgb(0,0,0)" stroke="rgb(0,0,0)" stroke-width="1" opacity="0.7725490196078432" d="M 94.5 226 L 92.5 229 L 94.5 226 Z " /><path fill="rgb(0,0,0)" stroke="rgb(0,0,0)" stroke-width="1" opacity="0.7725490196078432" d="M 184.5 226 L 181.5 230 L 184.5 226 Z " /><path fill="rgb(0,0,0)" stroke="rgb(0,0,0)" stroke-width="1" opacity="0.7725490196078432" d="M 327.5 226 L 330.5 230 L 327.5 226 Z " /><path fill="rgb(0,0,0)" stroke="rgb(0,0,0)" stroke-width="1" opacity="0.7725490196078432" d="M 417.5 226 L 419.5 229 L 417.5 226 Z " /><path fill="rgb(0,0,0)" stroke="rgb(0,0,0)" stroke-width="1" opacity="0.7725490196078432" d="M 151.5 229 L 148.5 233 L 151.5 229 Z " /><path fill="rgb(0,0,0)" stroke="rgb(0,0,0)" stroke-width="1" opacity="0.7725490196078432" d="M 360.5 229 L 363.5 233 L 360.5 229 Z " /><path fill="rgb(0,0,0)" stroke="rgb(0,0,0)" stroke-width="1" opacity="0.7725490196078432" d="M 89.5 230 L 86.5 234 L 89.5 230 Z " /><path fill="rgb(0,0,0)" stroke="rgb(0,0,0)" stroke-width="1" opacity="0.7725490196078432" d="M 422.5 230 L 425.5 234 L 422.5 230 Z " /><path fill="rgb(0,0,0)" stroke="rgb(0,0,0)" stroke-width="1" opacity="0.7725490196078432" d="M 178.5 231 L 176.5 234 L 178.5 231 Z " /><path fill="rgb(0,0,0)" stroke="rgb(0,0,0)" stroke-width="1" opacity="0.7725490196078432" d="M 333.5 231 L 335.5 234 L 333.5 231 Z " /><path fill="rgb(0,0,0)" stroke="rgb(0,0,0)" stroke-width="1" opacity="0.7725490196078432" d="M 145.5 234 L 143.5 237 L 145.5 234 Z " /><path fill="rgb(0,0,0)" stroke="rgb(0,0,0)" stroke-width="1" opacity="0.7725490196078432" d="M 366.5 234 L 368.5 237 L 366.5 234 Z " /><path fill="rgb(0,0,0)" stroke="rgb(0,0,0)" stroke-width="1" opacity="0.7725490196078432" d="M 83.5 235 L 81.5 238 L 83.5 235 Z " /><path fill="rgb(0,0,0)" stroke="rgb(0,0,0)" stroke-width="1" opacity="0.7725490196078432" d="M 428.5 235 L 430.5 238 L 428.5 235 Z " /><path fill="rgb(0,0,0)" stroke="rgb(0,0,0)" stroke-width="1" opacity="0.7725490196078432" d="M 172.5 236 L 170.5 239 L 172.5 236 Z " /><path fill="rgb(0,0,0)" stroke="rgb(0,0,0)" stroke-width="1" opacity="0.7725490196078432" d="M 339.5 236 L 341.5 239 L 339.5 236 Z " /><path fill="rgb(0,0,0)" stroke="rgb(0,0,0)" stroke-width="1" opacity="0.7725490196078432" d="M 139.5 239 L 137.5 242 L 139.5 239 Z " /><path fill="rgb(0,0,0)" stroke="rgb(0,0,0)" stroke-width="1" opacity="0.7725490196078432" d="M 372.5 239 L 374.5 242 L 372.5 239 Z " /><path fill="rgb(0,0,0)" stroke="rgb(0,0,0)" stroke-width="1" opacity="0.7725490196078432" d="M 77.5 240 L 75.5 243 L 77.5 240 Z " /><path fill="rgb(0,0,0)" stroke="rgb(0,0,0)" stroke-width="1" opacity="0.7725490196078432" d="M 434.5 240 L 436.5 243 L 434.5 240 Z " /><path fill="rgb(0,0,0)" stroke="rgb(0,0,0)" stroke-width="1" opacity="0.7725490196078432" d="M 166.5 241 L 164.5 244 L 166.5 241 Z " /><path fill="rgb(0,0,0)" stroke="rgb(0,0,0)" stroke-width="1" opacity="0.7725490196078432" d="M 345.5 241 L 347.5 244 L 345.5 241 Z " /><path fill="rgb(0,0,0)" stroke="rgb(0,0,0)" stroke-width="1" opacity="0.7725490196078432" d="M 134.5 243 L 131.5 247 L 134.5 243 Z " /><path fill="rgb(0,0,0)" stroke="rgb(0,0,0)" stroke-width="1" opacity="0.7725490196078432" d="M 377.5 243 L 380.5 247 L 377.5 243 Z " /><path fill="rgb(0,0,0)" stroke="rgb(0,0,0)" stroke-width="1" opacity="0.7725490196078432" d="M 72.5 244 L 69.5 248 L 72.5 244 Z " /><path fill="rgb(0,0,0)" stroke="rgb(0,0,0)" stroke-width="1" opacity="0.7725490196078432" d="M 439.5 244 L 442.5 248 L 439.5 244 Z " /><path fill="rgb(0,0,0)" stroke="rgb(0,0,0)" stroke-width="1" opacity="0.7725490196078432" d="M 160.5 246 L 158.5 249 L 160.5 246 Z " /><path fill="rgb(0,0,0)" stroke="rgb(0,0,0)" stroke-width="1" opacity="0.7725490196078432" d="M 351.5 246 L 353.5 249 L 351.5 246 Z " /><path fill="rgb(0,0,0)" stroke="rgb(0,0,0)" stroke-width="1" opacity="0.7725490196078432" d="M 128.5 248 L 126.5 251 L 128.5 248 Z " /><path fill="rgb(0,0,0)" stroke="rgb(0,0,0)" stroke-width="1" opacity="0.7725490196078432" d="M 383.5 248 L 385.5 251 L 383.5 248 Z " /><path fill="rgb(0,0,0)" stroke="rgb(0,0,0)" stroke-width="1" opacity="0.7725490196078432" d="M 66.5 249 L 64.5 252 L 66.5 249 Z " /><path fill="rgb(0,0,0)" stroke="rgb(0,0,0)" stroke-width="1" opacity="0.7725490196078432" d="M 445.5 249 L 447.5 252 L 445.5 249 Z " /><path fill="rgb(0,0,0)" stroke="rgb(0,0,0)" stroke-width="1" opacity="0.7725490196078432" d="M 155.5 250 L 152.5 254 L 155.5 250 Z " /><path fill="rgb(0,0,0)" stroke="rgb(0,0,0)" stroke-width="1" opacity="0.7725490196078432" d="M 356.5 250 L 359.5 254 L 356.5 250 Z " /><path fill="rgb(0,0,0)" stroke="rgb(0,0,0)" stroke-width="1" opacity="0.7725490196078432" d="M 122.5 253 L 120.5 256 L 122.5 253 Z " /><path fill="rgb(0,0,0)" stroke="rgb(0,0,0)" stroke-width="1" opacity="0.7725490196078432" d="M 389.5 253 L 391.5 256 L 389.5 253 Z " /><path fill="rgb(0,0,0)" stroke="rgb(0,0,0)" stroke-width="1" opacity="0.7725490196078432" d="M 60.5 254 L 58.5 257 L 60.5 254 Z " /><path fill="rgb(0,0,0)" stroke="rgb(0,0,0)" stroke-width="1" opacity="0.7725490196078432" d="M 451.5 254 L 453.5 257 L 451.5 254 Z " /><path fill="rgb(0,0,0)" stroke="rgb(0,0,0)" stroke-width="1" opacity="0.7725490196078432" d="M 149.5 255 L 146.5 259 L 149.5 255 Z " /><path fill="rgb(0,0,0)" stroke="rgb(0,0,0)" stroke-width="1" opacity="0.7725490196078432" d="M 362.5 255 L 365.5 259 L 362.5 255 Z " /><path fill="rgb(0,0,0)" stroke="rgb(0,0,0)" stroke-width="1" opacity="0.7725490196078432" d="M 117.5 257 L 114.5 261 L 117.5 257 Z " /><path fill="rgb(0,0,0)" stroke="rgb(0,0,0)" stroke-width="1" opacity="0.7725490196078432" d="M 394.5 257 L 397.5 261 L 394.5 257 Z " /><path fill="rgb(0,0,0)" stroke="rgb(0,0,0)" stroke-width="1" opacity="0.7725490196078432" d="M 55.5 258 L 52.5 262 L 55.5 258 Z " /><path fill="rgb(0,0,0)" stroke="rgb(0,0,0)" stroke-width="1" opacity="0.7725490196078432" d="M 456.5 258 L 459.5 262 L 456.5 258 Z " /><path fill="rgb(0,0,0)" stroke="rgb(0,0,0)" stroke-width="1" opacity="0.7725490196078432" d="M 143.5 260 L 140.5 264 L 143.5 260 Z " /><path fill="rgb(0,0,0)" stroke="rgb(0,0,0)" stroke-width="1" opacity="0.7725490196078432" d="M 368.5 260 L 371.5 264 L 368.5 260 Z " /><path fill="rgb(0,0,0)" stroke="rgb(0,0,0)" stroke-width="1" opacity="0.7725490196078432" d="M 111.5 262 L 109.5 265 L 111.5 262 Z " /><path fill="rgb(0,0,0)" stroke="rgb(0,0,0)" stroke-width="1" opacity="0.7725490196078432" d="M 400.5 262 L 402.5 265 L 400.5 262 Z " /><path fill="rgb(0,0,0)" stroke="rgb(0,0,0)" stroke-width="1" opacity="0.7725490196078432" d="M 49.5 263 L 47.5 266 L 49.5 263 Z " /><path fill="rgb(0,0,0)" stroke="rgb(0,0,0)" stroke-width="1" opacity="0.7725490196078432" d="M 462.5 263 L 464.5 266 L 462.5 263 Z " /><path fill="rgb(0,0,0)" stroke="rgb(0,0,0)" stroke-width="1" opacity="0.7725490196078432" d="M 137.5 265 L 135.5 268 L 137.5 265 Z " /><path fill="rgb(0,0,0)" stroke="rgb(0,0,0)" stroke-width="1" opacity="0.7725490196078432" d="M 374.5 265 L 376.5 268 L 374.5 265 Z " /><path fill="rgb(0,0,0)" stroke="rgb(0,0,0)" stroke-width="1" opacity="0.7725490196078432" d="M 105.5 267 L 103.5 270 L 105.5 267 Z " /><path fill="rgb(0,0,0)" stroke="rgb(0,0,0)" stroke-width="1" opacity="0.7725490196078432" d="M 406.5 267 L 408.5 270 L 406.5 267 Z " /><path fill="rgb(0,0,0)" stroke="rgb(0,0,0)" stroke-width="1" opacity="0.7725490196078432" d="M 47.5 269 L 50.5 273 L 47.5 269 Z " /><path fill="rgb(0,0,0)" stroke="rgb(0,0,0)" stroke-width="1" opacity="0.7725490196078432" d="M 464.5 269 L 461.5 273 L 464.5 269 Z " /><path fill="rgb(0,0,0)" stroke="rgb(0,0,0)" stroke-width="1" opacity="0.7725490196078432" d="M 131.5 270 L 129.5 273 L 131.5 270 Z " /><path fill="rgb(0,0,0)" stroke="rgb(0,0,0)" stroke-width="1" opacity="0.7725490196078432" d="M 380.5 270 L 382.5 273 L 380.5 270 Z " /><path fill="rgb(0,0,0)" stroke="rgb(0,0,0)" stroke-width="1" opacity="0.7725490196078432" d="M 100.5 271 L 97.5 275 L 100.5 271 Z " /><path fill="rgb(0,0,0)" stroke="rgb(0,0,0)" stroke-width="1" opacity="0.7725490196078432" d="M 411.5 271 L 414.5 275 L 411.5 271 Z " /><path fill="rgb(0,0,0)" stroke="rgb(0,0,0)" stroke-width="1" opacity="0.7725490196078432" d="M 52.5 275 L 54.5 278 L 52.5 275 Z " /><path fill="rgb(0,0,0)" stroke="rgb(0,0,0)" stroke-width="1" opacity="0.7725490196078432" d="M 125.5 275 L 123.5 278 L 125.5 275 Z " /><path fill="rgb(0,0,0)" stroke="rgb(0,0,0)" stroke-width="1" opacity="0.7725490196078432" d="M 386.5 275 L 388.5 278 L 386.5 275 Z " /><path fill="rgb(0,0,0)" stroke="rgb(0,0,0)" stroke-width="1" opacity="0.7725490196078432" d="M 459.5 275 L 457.5 278 L 459.5 275 Z " /><path fill="rgb(0,0,0)" stroke="rgb(0,0,0)" stroke-width="1" opacity="0.7725490196078432" d="M 94.5 276 L 92.5 279 L 94.5 276 Z " /><path fill="rgb(0,0,0)" stroke="rgb(0,0,0)" stroke-width="1" opacity="0.7725490196078432" d="M 417.5 276 L 419.5 279 L 417.5 276 Z " /><path fill="rgb(0,0,0)" stroke="rgb(0,0,0)" stroke-width="1" opacity="0.7725490196078432" d="M 119.5 280 L 117.5 283 L 119.5 280 Z " /><path fill="rgb(0,0,0)" stroke="rgb(0,0,0)" stroke-width="1" opacity="0.7725490196078432" d="M 392.5 280 L 394.5 283 L 392.5 280 Z " /><path fill="rgb(0,0,0)" stroke="rgb(0,0,0)" stroke-width="1" opacity="0.7725490196078432" d="M 57.5 281 L 59.5 284 L 57.5 281 Z " /><path fill="rgb(0,0,0)" stroke="rgb(0,0,0)" stroke-width="1" opacity="0.7725490196078432" d="M 88.5 281 L 86.5 284 L 88.5 281 Z " /><path fill="rgb(0,0,0)" stroke="rgb(0,0,0)" stroke-width="1" opacity="0.7725490196078432" d="M 423.5 281 L 425.5 284 L 423.5 281 Z " /><path fill="rgb(0,0,0)" stroke="rgb(0,0,0)" stroke-width="1" opacity="0.7725490196078432" d="M 454.5 281 L 452.5 284 L 454.5 281 Z " /><path fill="rgb(0,0,0)" stroke="rgb(0,0,0)" stroke-width="1" opacity="0.7725490196078432" d="M 114.5 284 L 111.5 288 L 114.5 284 Z " /><path fill="rgb(0,0,0)" stroke="rgb(0,0,0)" stroke-width="1" opacity="0.7725490196078432" d="M 397.5 284 L 400.5 288 L 397.5 284 Z " /><path fill="rgb(0,0,0)" stroke="rgb(0,0,0)" stroke-width="1" opacity="0.7725490196078432" d="M 83.5 285 L 80.5 289 L 83.5 285 Z " /><path fill="rgb(0,0,0)" stroke="rgb(0,0,0)" stroke-width="1" opacity="0.7725490196078432" d="M 428.5 285 L 431.5 289 L 428.5 285 Z " /><path fill="rgb(0,0,0)" stroke="rgb(0,0,0)" stroke-width="1" opacity="0.7725490196078432" d="M 61.5 286 L 64.5 290 L 61.5 286 Z " /><path fill="rgb(0,0,0)" stroke="rgb(0,0,0)" stroke-width="1" opacity="0.7725490196078432" d="M 450.5 286 L 447.5 290 L 450.5 286 Z " /><path fill="rgb(0,0,0)" stroke="rgb(0,0,0)" stroke-width="1" opacity="0.7725490196078432" d="M 77.5 290 L 75.5 293 L 77.5 290 Z " /><path fill="rgb(0,0,0)" stroke="rgb(0,0,0)" stroke-width="1" opacity="0.7725490196078432" d="M 434.5 290 L 436.5 293 L 434.5 290 Z " /><path fill="rgb(0,0,0)" stroke="rgb(0,0,0)" stroke-width="1" opacity="0.7725490196078432" d="M 66.5 292 L 68.5 295 L 66.5 292 Z " /><path fill="rgb(0,0,0)" stroke="rgb(0,0,0)" stroke-width="1" opacity="0.7725490196078432" d="M 445.5 292 L 443.5 295 L 445.5 292 Z " /><path fill="rgb(0,0,0)" stroke="rgb(0,0,0)" stroke-width="1" opacity="0.7725490196078432" d="M 71.5 295 L 70.5 297 L 71.5 295 Z " /><path fill="rgb(0,0,0)" stroke="rgb(0,0,0)" stroke-width="1" opacity="0.7725490196078432" d="M 440.5 295 L 441.5 297 L 440.5 295 Z " /><path fill="rgb(0,0,0)" stroke="rgb(0,0,0)" stroke-width="1" opacity="0.7725490196078432" d="M 92.5 341 L 94 341.5 L 94 493.5 L 92.5 495 L 0.5 495 L 0.5 494 L 93 494 L 93 342.5 L 92.5 341 Z " /><path fill="rgb(0,0,0)" stroke="rgb(0,0,0)" stroke-width="1" opacity="0.7725490196078432" d="M 418 341 L 420 341.5 L 419 342.5 L 419 494 L 512 494.5 L 419.5 495 L 418 493.5 L 418 341 Z " /><path fill="rgb(0,0,0)" stroke="rgb(0,0,0)" stroke-width="1" opacity="0.7725490196078432" d="M 423.5 343 L 424.5 345 L 423.5 343 Z " /><path fill="rgb(0,0,0)" stroke="rgb(0,0,0)" stroke-width="1" opacity="0.7725490196078432" d="M 86.5 344 L 85.5 346 L 86.5 344 Z " /><path fill="rgb(0,0,0)" stroke="rgb(0,0,0)" stroke-width="1" opacity="0.7725490196078432" d="M 430.5 347 L 431.5 349 L 430.5 347 Z " /><path fill="rgb(0,0,0)" stroke="rgb(0,0,0)" stroke-width="1" opacity="0.7725490196078432" d="M 74.5 351 L 73.5 353 L 74.5 351 Z " /><path fill="rgb(0,0,0)" stroke="rgb(0,0,0)" stroke-width="1" opacity="0.7725490196078432" d="M 442.5 354 L 443.5 356 L 442.5 354 Z " /><path fill="rgb(0,0,0)" stroke="rgb(0,0,0)" stroke-width="1" opacity="0.7725490196078432" d="M 67.5 355 L 66.5 357 L 67.5 355 Z " /><path fill="rgb(0,0,0)" stroke="rgb(0,0,0)" stroke-width="1" opacity="0.7725490196078432" d="M 248.5 357 L 254 357.5 L 248.5 358 L 248.5 357 Z " /><path fill="rgb(0,0,0)" stroke="rgb(0,0,0)" stroke-width="1" opacity="0.7725490196078432" d="M 258.5 357 L 264 357.5 L 258.5 358 L 258.5 357 Z " /><path fill="rgb(0,0,0)" stroke="rgb(0,0,0)" stroke-width="1" opacity="0.7725490196078432" d="M 449.5 358 L 450.5 360 L 449.5 358 Z " /><path fill="rgb(0,0,0)" stroke="rgb(0,0,0)" stroke-width="1" opacity="0.7725490196078432" d="M 55.5 362 L 54.5 364 L 55.5 362 Z " /><path fill="rgb(0,0,0)" stroke="rgb(0,0,0)" stroke-width="1" opacity="0.7725490196078432" d="M 227.5 365 L 224.5 369 L 227.5 365 Z " /><path fill="rgb(0,0,0)" stroke="rgb(0,0,0)" stroke-width="1" opacity="0.7725490196078432" d="M 284.5 365 L 287.5 369 L 284.5 365 Z " /><path fill="rgb(0,0,0)" stroke="rgb(0,0,0)" stroke-width="1" opacity="0.7725490196078432" d="M 461.5 365 L 462.5 367 L 461.5 365 Z " /><path fill="rgb(0,0,0)" stroke="rgb(0,0,0)" stroke-width="1" opacity="0.7725490196078432" d="M 48.5 366 L 47.5 368 L 48.5 366 Z " /><path fill="rgb(0,0,0)" stroke="rgb(0,0,0)" stroke-width="1" opacity="0.7725490196078432" d="M 468.5 369 L 469.5 371 L 468.5 369 Z " /><path fill="rgb(0,0,0)" stroke="rgb(0,0,0)" stroke-width="1" opacity="0.7725490196078432" d="M 221.5 370 L 219.5 373 L 221.5 370 Z " /><path fill="rgb(0,0,0)" stroke="rgb(0,0,0)" stroke-width="1" opacity="0.7725490196078432" d="M 290.5 370 L 292.5 373 L 290.5 370 Z " /><path fill="rgb(0,0,0)" stroke="rgb(0,0,0)" stroke-width="1" opacity="0.7725490196078432" d="M 36.5 373 L 35.5 375 L 36.5 373 Z " /><path fill="rgb(0,0,0)" stroke="rgb(0,0,0)" stroke-width="1" opacity="0.7725490196078432" d="M 475.5 373 L 476.5 375 L 475.5 373 Z " /><path fill="rgb(0,0,0)" stroke="rgb(0,0,0)" stroke-width="1" opacity="0.7725490196078432" d="M 216.5 376 L 214.5 379 L 216.5 376 Z " /><path fill="rgb(0,0,0)" stroke="rgb(0,0,0)" stroke-width="1" opacity="0.7725490196078432" d="M 295.5 376 L 297.5 379 L 295.5 376 Z " /><path fill="rgb(0,0,0)" stroke="rgb(0,0,0)" stroke-width="1" opacity="0.7725490196078432" d="M 29.5 377 L 28.5 379 L 29.5 377 Z " /><path fill="rgb(0,0,0)" stroke="rgb(0,0,0)" stroke-width="1" opacity="0.7725490196078432" d="M 24.5 380 L 23.5 382 L 24.5 380 Z " /><path fill="rgb(0,0,0)" stroke="rgb(0,0,0)" stroke-width="1" opacity="0.7725490196078432" d="M 487.5 380 L 488.5 382 L 487.5 380 Z " /><path fill="rgb(0,0,0)" stroke="rgb(0,0,0)" stroke-width="1" opacity="0.7725490196078432" d="M 17.5 384 L 16.5 386 L 17.5 384 Z " /><path fill="rgb(0,0,0)" stroke="rgb(0,0,0)" stroke-width="1" opacity="0.7725490196078432" d="M 211.5 384 L 210.5 386 L 211.5 384 Z " /><path fill="rgb(0,0,0)" stroke="rgb(0,0,0)" stroke-width="1" opacity="0.7725490196078432" d="M 300.5 384 L 301.5 386 L 300.5 384 Z " /><path fill="rgb(0,0,0)" stroke="rgb(0,0,0)" stroke-width="1" opacity="0.7725490196078432" d="M 494.5 384 L 495.5 386 L 494.5 384 Z " /><path fill="rgb(0,0,0)" stroke="rgb(0,0,0)" stroke-width="1" opacity="0.7725490196078432" d="M 10.5 388 L 9.5 390 L 10.5 388 Z " /><path fill="rgb(0,0,0)" stroke="rgb(0,0,0)" stroke-width="1" opacity="0.7725490196078432" d="M 5.5 391 L 4.5 393 L 5.5 391 Z " /><path fill="rgb(0,0,0)" stroke="rgb(0,0,0)" stroke-width="1" opacity="0.7725490196078432" d="M 506.5 391 L 507.5 393 L 506.5 391 Z " /><path fill="rgb(0,0,0)" stroke="rgb(0,0,0)" stroke-width="1" opacity="0.7725490196078432" d="M 206.5 397 L 207 399.5 L 206 399.5 L 206.5 397 Z " /><path fill="rgb(0,0,0)" stroke="rgb(0,0,0)" stroke-width="1" opacity="0.7725490196078432" d="M 305.5 397 L 306 399.5 L 305 399.5 L 305.5 397 Z " /><path fill="rgb(0,0,0)" stroke="rgb(0,0,0)" stroke-width="1" opacity="1" d="M 245 18 L 267 18 L 267 44 L 303 44 L 303 66 L 267 66 L 267 102.5 L 459.5 262 L 466 266 L 443 296 L 439.5 295 L 269.5 154 L 255.5 144 L 72.5 295 L 69 296 L 46 266 L 52.5 262 L 245 102.5 L 245 66 L 209 66 L 209 44 L 245 44 L 245 18 Z " /><path fill="rgb(0,0,0)" stroke="rgb(0,0,0)" stroke-width="1" opacity="1" d="M 255.5 168 L 402 288 L 402 494 L 306 494 L 306 397.5 L 302 385.5 L 290.5 370 Q 283.1 362.4 271.5 359 L 263.5 357 L 248.5 357 Q 236.3 359.3 227.5 365 L 219 372.5 L 210 385.5 L 206 397.5 L 206 494 L 110 494 L 110 288 L 255.5 168 Z " /><path fill="rgb(0,0,0)" stroke="rgb(0,0,0)" stroke-width="1" opacity="1" d="M 91.5 342 L 93 342.5 L 93 494 L 0 494 L 0 395.5 L 91.5 342 Z " /><path fill="rgb(0,0,0)" stroke="rgb(0,0,0)" stroke-width="1" opacity="1" d="M 419 342 L 512 395.5 L 512 494 L 419 494 L 419 342 Z " /></svg>